<mxfile host="app.diagrams.net" modified="2024-02-08T00:40:55.264Z" agent="Mozilla/5.0 (Macintosh; Intel Mac OS X 10_15_7) AppleWebKit/537.36 (KHTML, like Gecko) Chrome/120.0.0.0 Safari/537.36" etag="f8PQFunuccG-dLobZzjQ" version="23.1.1" type="device">
  <diagram name="Page-1" id="HrYvO5BAmIBx4iLWpbLQ">
    <mxGraphModel dx="934" dy="505" grid="1" gridSize="10" guides="1" tooltips="1" connect="1" arrows="1" fold="1" page="1" pageScale="1" pageWidth="827" pageHeight="1169" math="0" shadow="0">
      <root>
        <mxCell id="0" />
        <mxCell id="1" parent="0" />
        <mxCell id="MwyXWOdBrC3pP23JNnCg-1" value="" style="whiteSpace=wrap;html=1;aspect=fixed;" vertex="1" parent="1">
          <mxGeometry x="330" y="30" width="450" height="450" as="geometry" />
        </mxCell>
        <mxCell id="MwyXWOdBrC3pP23JNnCg-2" value="Utilisateur passager" style="shape=umlActor;verticalLabelPosition=bottom;verticalAlign=top;html=1;outlineConnect=0;" vertex="1" parent="1">
          <mxGeometry x="130" y="80" width="50" height="90" as="geometry" />
        </mxCell>
        <mxCell id="MwyXWOdBrC3pP23JNnCg-3" value="Renvoie vers la passerelle de paiement" style="ellipse;whiteSpace=wrap;html=1;" vertex="1" parent="1">
          <mxGeometry x="380" y="85" width="340" height="95" as="geometry" />
        </mxCell>
        <mxCell id="MwyXWOdBrC3pP23JNnCg-4" value="" style="endArrow=classic;html=1;rounded=0;entryX=0;entryY=0.5;entryDx=0;entryDy=0;" edge="1" parent="1" source="MwyXWOdBrC3pP23JNnCg-2" target="MwyXWOdBrC3pP23JNnCg-3">
          <mxGeometry width="50" height="50" relative="1" as="geometry">
            <mxPoint x="390" y="290" as="sourcePoint" />
            <mxPoint x="440" y="240" as="targetPoint" />
          </mxGeometry>
        </mxCell>
        <mxCell id="MwyXWOdBrC3pP23JNnCg-5" value="Prélèvement des frais au moment de la réservation accepté" style="ellipse;whiteSpace=wrap;html=1;" vertex="1" parent="1">
          <mxGeometry x="380" y="220" width="340" height="85" as="geometry" />
        </mxCell>
        <mxCell id="MwyXWOdBrC3pP23JNnCg-6" value="" style="endArrow=classic;html=1;rounded=0;entryX=0;entryY=0;entryDx=0;entryDy=0;" edge="1" parent="1" source="MwyXWOdBrC3pP23JNnCg-2" target="MwyXWOdBrC3pP23JNnCg-5">
          <mxGeometry width="50" height="50" relative="1" as="geometry">
            <mxPoint x="390" y="300" as="sourcePoint" />
            <mxPoint x="440" y="250" as="targetPoint" />
          </mxGeometry>
        </mxCell>
        <mxCell id="MwyXWOdBrC3pP23JNnCg-7" value="Génération automatique d&#39;une facture de paiement" style="ellipse;whiteSpace=wrap;html=1;" vertex="1" parent="1">
          <mxGeometry x="380" y="340" width="340" height="80" as="geometry" />
        </mxCell>
        <mxCell id="MwyXWOdBrC3pP23JNnCg-8" value="" style="endArrow=classic;html=1;rounded=0;entryX=0;entryY=0;entryDx=0;entryDy=0;" edge="1" parent="1" source="MwyXWOdBrC3pP23JNnCg-2" target="MwyXWOdBrC3pP23JNnCg-7">
          <mxGeometry width="50" height="50" relative="1" as="geometry">
            <mxPoint x="390" y="300" as="sourcePoint" />
            <mxPoint x="440" y="250" as="targetPoint" />
          </mxGeometry>
        </mxCell>
      </root>
    </mxGraphModel>
  </diagram>
</mxfile>
